<?xml version="1.0" encoding="utf-8"?>
<!-- Generator: Adobe Illustrator 12.0.1, SVG Export Plug-In . SVG Version: 6.00 Build 51448)  -->
<!DOCTYPE svg PUBLIC "-//W3C//DTD SVG 1.1//EN" "http://www.w3.org/Graphics/SVG/1.1/DTD/svg11.dtd" [
	<!ENTITY ns_svg "http://www.w3.org/2000/svg">
	<!ENTITY ns_xlink "http://www.w3.org/1999/xlink">
]>
<svg  version="1.1" id="Layer_1" xmlns="&ns_svg;" xmlns:xlink="&ns_xlink;" width="849.908" height="375.285"
	 viewBox="0 0 849.908 375.285" overflow="visible" enable-background="new 0 0 849.908 375.285" xml:space="preserve">
<g id="Layer_1_1_" display="none">
	
		<text transform="matrix(1 0 0 1 194.3018 126.7856)" display="inline" fill="#33C5F4" font-family="'FranklinGothic-MediumCond'" font-size="152.1138">Anton</text>
	
		<text transform="matrix(1 0 0 1 0 232.4204)" display="inline" fill="#33C5F4" font-family="'FranklinGothic-MediumCond'" font-size="152.1138">Ledström</text>
</g>
<g id="Layer_2">
	<g>
		<path fill="#33C5F4" d="M360.439,25.167h31.658l45.48,169.432h-28.408l-10.628-42.41h-49.687l-10.501,42.41h-26.751
			L360.439,25.167z M392.991,130.043l-19.446-77.57l-19.21,77.57H392.991z"/>
		<path fill="#33C5F4" d="M453.524,69.248h23.816v19.406c5.811-14.885,16.188-22.331,31.133-22.331
			c8.467,0,15.293,2.027,20.482,6.078c5.189,4.054,8.469,8.912,9.838,14.579c1.371,5.667,2.059,14.618,2.059,26.855v80.763h-25.908
			V115.33c0-10.896-0.953-18.307-2.855-22.23c-1.906-3.924-5.961-5.886-12.17-5.886c-6.457,0-11.486,2.5-15.088,7.495
			c-3.604,4.994-5.4,14.924-5.4,29.787v70.102h-25.906V69.248L453.524,69.248z"/>
		<path fill="#33C5F4" d="M575.165,36.595l23.291-2.236v34.889h24.025V90.14h-24.025v55.232c0,9.741,0.248,16.201,0.746,19.38
			c0.5,3.18,1.998,5.778,4.496,7.802c2.494,2.024,6.656,3.033,12.479,3.033c3.074,0,6.57-0.288,10.482-0.869v20.761
			c-6.979,1.502-13.457,2.252-19.434,2.252c-9.717,0-17.15-1.883-22.299-5.644c-5.15-3.764-8.432-8.874-9.842-15.327
			c-1.414-6.454-2.119-16.299-2.119-29.539V90.14h-16.295V69.248h17.131L575.165,36.595z"/>
		<path fill="#33C5F4" d="M733.771,130.725c0,44.672-16.572,67.007-49.719,67.007c-15.252,0-27.244-5.396-35.986-16.191
			c-8.742-10.795-13.113-27.319-13.113-49.576c0-43.761,16.574-65.642,49.719-65.642c15.082,0,27.033,5.337,35.859,16.008
			S733.771,109.135,733.771,130.725z M706.192,132.028c0-17.582-1.965-29.657-5.891-36.221c-3.932-6.562-9.242-9.845-15.939-9.845
			c-14.557,0-21.832,15.355-21.832,46.066c0,15.688,1.693,27.286,5.086,34.797c3.387,7.515,8.969,11.269,16.746,11.269
			c7.689,0,13.25-3.816,16.684-11.455C704.476,159.004,706.192,147.468,706.192,132.028z"/>
		<path fill="#33C5F4" d="M758.157,69.248h23.816v19.406c5.811-14.885,16.188-22.331,31.133-22.331
			c8.467,0,15.293,2.027,20.482,6.078c5.189,4.054,8.469,8.912,9.84,14.579s2.057,14.618,2.057,26.855v80.763h-25.906V115.33
			c0-10.896-0.953-18.307-2.855-22.23c-1.906-3.924-5.961-5.886-12.17-5.886c-6.457,0-11.486,2.5-15.088,7.495
			c-3.604,4.994-5.402,14.924-5.402,29.787v70.102h-25.906V69.248L758.157,69.248z"/>
		<path fill="#33C5F4" d="M3.454,201.718h27.995v145.615h59.959v23.816H3.454V201.718z"/>
		<path fill="#33C5F4" d="M197.4,312.445h-70.816c0,16.861,2.285,28.113,6.855,33.75c4.57,5.633,10.315,8.449,17.235,8.449
			c11.53,0,18.816-7.799,21.865-23.396l23.816,3.109c-6.215,26.617-21.708,39.928-46.478,39.928c-15.163,0-27.26-5.416-36.29-16.254
			c-9.029-10.838-13.543-26.723-13.543-47.652c0-21.506,4.55-38.135,13.658-49.883c9.107-11.744,21.277-17.621,36.508-17.621
			c10.681,0,19.661,2.941,26.947,8.82c7.286,5.883,12.417,13.605,15.398,23.17S197.152,296.958,197.4,312.445z M170.867,294.895
			c0-22.146-7.175-33.218-21.521-33.218c-13.443,0-20.823,11.072-22.142,33.218H170.867z"/>
		<path fill="#33C5F4" d="M284.087,201.718h25.906V371.15h-23.816v-18.934c-6.036,14.154-16.41,21.23-31.125,21.23
			c-14.141,0-24.744-5.914-31.811-17.752c-7.07-11.836-10.603-27.354-10.603-46.559c0-20.608,3.901-36.665,11.703-48.168
			c7.802-11.504,18.182-17.26,31.142-17.26c13.619,0,23.154,5.547,28.605,16.635L284.087,201.718L284.087,201.718z M284.087,297.369
			c0-12.9-2.432-21.933-7.292-27.104c-4.861-5.167-9.888-7.753-15.078-7.753c-14.337,0-21.502,14.722-21.502,44.159
			c0,31.426,7.25,47.137,21.75,47.137c5.602,0,10.691-2.604,15.264-7.813c4.57-5.211,6.858-14.268,6.858-27.166V297.369z"/>
		<path fill="#33C5F4" d="M415.607,275.214l-20.265,5.474c-3.721-12.672-10.785-19.013-21.195-19.013
			c-4.795,0-8.66,1.492-11.592,4.477c-2.935,2.982-4.4,6.672-4.4,11.066c0,4.975,1.488,8.621,4.465,10.941
			c2.977,2.321,9.803,5.217,20.477,8.689c13.155,4.387,22.628,9.33,28.419,14.83c5.791,5.502,8.687,13.174,8.687,23.02
			c0,11.086-4.139,20.455-12.411,28.105c-8.272,7.652-19.442,11.479-33.505,11.479c-26.559,0-41.613-12.146-45.171-36.439
			l21.936-4.09c2.817,14.346,10.812,21.518,23.986,21.518c6.711,0,11.703-1.65,14.977-4.959c3.271-3.303,4.91-7.229,4.91-11.775
			c0-3.143-1.12-6.262-3.355-9.363c-2.236-3.098-8.491-6.303-18.76-9.613c-9.858-3.139-17.294-6.076-22.305-8.807
			c-5.014-2.729-9.134-6.682-12.365-11.853c-3.232-5.17-4.844-11.022-4.844-17.56c0-10.67,3.888-19.748,11.67-27.237
			c7.779-7.485,17.836-11.229,30.169-11.229C396.072,242.875,409.564,253.658,415.607,275.214z"/>
		<path fill="#33C5F4" d="M446.808,213.146l23.291-2.236v34.889h24.025v20.893h-24.025v55.232c0,9.74,0.248,16.201,0.748,19.381
			s1.998,5.777,4.494,7.803c2.494,2.021,6.656,3.031,12.479,3.031c3.076,0,6.572-0.287,10.482-0.869v20.762
			c-6.979,1.502-13.455,2.254-19.434,2.254c-9.717,0-17.15-1.885-22.299-5.646c-5.15-3.764-8.432-8.871-9.842-15.324
			c-1.414-6.453-2.119-16.301-2.119-29.539v-57.084h-16.295v-20.893h17.131L446.808,213.146z"/>
		<path fill="#33C5F4" d="M511.372,245.798h22.771v28.021c6.979-20.49,17.447-30.736,31.406-30.736c1.328,0,2.908,0.127,4.734,0.375
			v27.156c-2.16-0.248-3.902-0.373-5.23-0.373c-18.52,0-27.777,12.398-27.777,37.189v63.719h-25.904V245.798z"/>
		<path fill="#33C5F4" d="M673.192,307.277c0,44.672-16.574,67.006-49.719,67.006c-15.252,0-27.244-5.396-35.986-16.191
			s-13.113-27.318-13.113-49.574c0-43.762,16.572-65.643,49.721-65.643c15.08,0,27.029,5.336,35.857,16.008
			C668.776,269.554,673.192,285.686,673.192,307.277z M590.669,214.167c0-3.629,1.35-6.682,4.049-9.156
			c2.697-2.475,5.875-3.711,9.531-3.711c3.57,0,6.725,1.197,9.467,3.587c2.74,2.394,4.111,5.487,4.111,9.28
			c0,3.715-1.412,6.744-4.236,9.095c-2.822,2.351-5.938,3.524-9.342,3.524c-3.322,0-6.418-1.152-9.283-3.463
			C592.099,221.013,590.669,217.96,590.669,214.167z M645.614,308.58c0-17.582-1.965-29.656-5.893-36.222
			c-3.932-6.562-9.242-9.845-15.939-9.845c-14.557,0-21.832,15.355-21.832,46.066c0,15.688,1.693,27.287,5.086,34.797
			c3.389,7.516,8.971,11.27,16.746,11.27c7.689,0,13.25-3.816,16.686-11.453C643.897,335.554,645.614,324.019,645.614,308.58z
			 M630.153,214.167c0-3.545,1.35-6.578,4.049-9.094c2.699-2.514,5.875-3.773,9.531-3.773c3.652,0,6.828,1.236,9.529,3.711
			c2.697,2.475,4.051,5.527,4.051,9.156c0,3.793-1.414,6.846-4.238,9.156c-2.822,2.311-5.938,3.463-9.342,3.463
			c-3.408,0-6.521-1.175-9.346-3.524C631.565,220.912,630.153,217.882,630.153,214.167z"/>
		<path fill="#33C5F4" d="M697.577,245.798h23.816v19.158c6.127-14.722,16.438-22.082,30.93-22.082
			c15.902,0,25.467,7.774,28.699,23.324c5.879-15.549,16.479-23.324,31.801-23.324c7.619,0,13.977,1.654,19.066,4.961
			c5.094,3.311,8.631,7.694,10.619,13.152s2.982,15.758,2.982,30.891v79.271h-25.904v-77.04c0-11.808-1.021-19.817-3.063-24.028
			s-6.141-6.316-12.301-6.316c-13.158,0-19.736,11.354-19.736,34.061v73.324h-25.906v-76.174c0-10.814-0.436-17.813-1.299-20.993
			c-0.865-3.179-2.473-5.677-4.818-7.491c-2.352-1.816-5.377-2.727-9.086-2.727c-7.168,0-12.271,2.705-15.32,8.111
			c-3.051,5.41-4.574,14.266-4.574,26.568v72.705h-25.906V245.798L697.577,245.798z"/>
	</g>
</g>
</svg>
